/* XPM */
static char *result[] = {
/* columns rows colors chars-per-pixel */
"32 32 219 2 ",
"   c #2F280E",
".  c #2A2201",
"X  c #30290E",
"o  c #3D2E06",
"O  c #3C310F",
"+  c #332D12",
"@  c #3A3216",
"#  c #3C351A",
"$  c #3F381D",
"%  c #433C1E",
"&  c #483713",
"*  c #513811",
"=  c #44390D",
"-  c #423C21",
";  c #55421A",
":  c #694C19",
">  c #674819",
",  c #6B581A",
"<  c #4B4323",
"1  c #4E462A",
"2  c #474423",
"3  c #534A26",
"4  c #544D2B",
"5  c #5A4E2A",
"6  c #5F4C21",
"7  c #5C522C",
"8  c #4C4A35",
"9  c #534D33",
"0  c #574132",
"q  c #5A5333",
"w  c #59543A",
"e  c #655B34",
"r  c #6A5F39",
"t  c #675C38",
"y  c #725130",
"u  c #6C633C",
"i  c #66603F",
"p  c #726335",
"a  c #73643B",
"s  c #79693B",
"d  c #5C5843",
"f  c #625D44",
"g  c #6B5745",
"h  c #6F6A41",
"j  c #66614B",
"k  c #6C6545",
"l  c #746C43",
"z  c #796947",
"x  c #7A7146",
"c  c #7A744C",
"v  c #6B6652",
"b  c #686756",
"n  c #726F5E",
"m  c #7A745A",
"M  c #757262",
"N  c #7B7767",
"B  c #925F13",
"V  c #93651C",
"C  c #875731",
"Z  c #966C27",
"A  c #99702B",
"S  c #836E3F",
"D  c #946F30",
"F  c #99763A",
"G  c #866B2C",
"H  c #A4792C",
"J  c #A67C35",
"K  c #B27B26",
"L  c #A15F43",
"P  c #84714A",
"I  c #88774A",
"U  c #877A54",
"Y  c #A27E5C",
"T  c #A46545",
"R  c #817B62",
"E  c #807E71",
"W  c #9C853C",
"Q  c #BF8026",
"!  c #BB982C",
"~  c #B88B3C",
"^  c #BB9B3A",
"/  c #B8953B",
"(  c #AF8B29",
")  c #C59B38",
"_  c #CE8C2F",
"`  c #E49E37",
"'  c #CAA636",
"]  c #C3A33C",
"[  c #CDAA3E",
"{  c #EFA039",
"}  c #8B8155",
"|  c #8F865D",
" . c #9C8C56",
".. c #9D8C5C",
"X. c #968555",
"o. c #9A915B",
"O. c #A68142",
"+. c #AA8A44",
"@. c #AE924E",
"#. c #A7975E",
"$. c #B4985C",
"%. c #B68F46",
"&. c #BDA249",
"*. c #8C866D",
"=. c #928A62",
"-. c #9C8D62",
";. c #898676",
":. c #938C74",
">. c #998D73",
",. c #9E9171",
"<. c #93907E",
"1. c #9A9065",
"2. c #A08C61",
"3. c #A2956D",
"4. c #AA9568",
"5. c #AB9A6C",
"6. c #A0986C",
"7. c #B79B69",
"8. c #AF9B70",
"9. c #B39E71",
"0. c #AEA368",
"q. c #BAA169",
"w. c #BAAC6F",
"e. c #B8A263",
"r. c #ABA172",
"t. c #B3A273",
"y. c #B3A47C",
"u. c #BCAD7D",
"i. c #B8AA75",
"p. c #BDB475",
"a. c #C69742",
"s. c #C49B56",
"d. c #C7A947",
"f. c #CDAB41",
"g. c #C5A94B",
"h. c #C6A64B",
"j. c #CAA452",
"k. c #CBA856",
"l. c #CFB35C",
"z. c #D6AE5C",
"x. c #ECA94A",
"c. c #E1A850",
"v. c #C8977B",
"b. c #C7A869",
"n. c #D7AD68",
"m. c #C7B36A",
"M. c #DAB26F",
"N. c #CDB875",
"B. c #C5B47D",
"V. c #CFBC7C",
"C. c #C9B87B",
"Z. c #D6BA77",
"A. c #C0AB78",
"S. c #E8B968",
"D. c #CBC27E",
"F. c #D8C379",
"G. c #F3C877",
"H. c #EAC57C",
"J. c #969485",
"K. c #9E9986",
"L. c #9F9E8B",
"P. c #9E9680",
"I. c #A29A85",
"U. c #AAA28B",
"Y. c #ADA285",
"T. c #BBAB84",
"R. c #B0A487",
"E. c #A9A592",
"W. c #A6A495",
"Q. c #B4AD92",
"!. c #ADB09A",
"~. c #B9B799",
"^. c #B6B08B",
"/. c #B9B9A1",
"(. c #C6B583",
"). c #CAB682",
"_. c #C9BC8A",
"`. c #D4BF83",
"'. c #D1BF8C",
"]. c #C6BD97",
"[. c #CEC08F",
"{. c #CDC281",
"}. c #D4C386",
"|. c #DBC284",
" X c #D5C48C",
".X c #CBC193",
"XX c #C9C299",
"oX c #D4C998",
"OX c #D9C998",
"+X c #DCD29C",
"@X c #EECC8B",
"#X c #E3C887",
"$X c #F4D18B",
"%X c #F3D086",
"&X c #E4CB95",
"*X c #E0D39E",
"=X c #F3D595",
"-X c #F2D599",
";X c #F3CD85",
":X c #CBC4A1",
">X c #C8C7A7",
",X c #D7CCA1",
"<X c #DED4A0",
"1X c #D9D7B4",
"2X c #E2D6A4",
"3X c #E5DBA6",
"4X c #E6DEAD",
"5X c #ECD9AB",
"6X c #F2DAA4",
"7X c #F4DEAA",
"8X c #F1D7A1",
"9X c #E0DBB0",
"0X c #ECE4AC",
"qX c #F5E1AE",
"wX c #EDE6B5",
"eX c #F3EDBC",
"rX c #F3E4B1",
"tX c #F6F1C2",
"yX c None",
/* pixels */
"yXyXyXyXyXyXyXyXyXyXyXyXyXyXyXyXyXyXyXyXyXyXyXyXyXyXyXyXyXyXyXyX",
"yXyXyXyXyXyXyXyXyXyXyX$.7.8.3.,.,.3.5.7.$.yXyXyXyXyXyXyXyXyXyXyX",
"yXyXyXyXyXyXyXyXyXq.y.:.v q < < - 1 w U U.y.q.yXyXyXyXyXyXyXyXyX",
"yXyXyXyXyXyXyXb.T.*.9 3 3 e 7 p 7 e 7 5 8 c :.T.q.yXyXyXyXyXyXyX",
"yXyXyXyXyXyXB.U.d 7 l c x h q u 4 7 l h u x q w I.A.yXyXyXyXyXyX",
"yXyXyXyXyX).K.<   3 r # i u U X.| U h t 1 e 1   - K.(.yXyXyXyXyX",
"yXyXyXyX'.K.-     + u | 5.B.`. X|.}.).5.=.w X   + - E._.yXyXyXyX",
"yXyXyXoXQ.<     # =.u. X X+Xd.+.F.g.l.N. Xi.} # X X 9 /.T.yXyXyX",
"yXyXyX:Xj     $ 6.[.}.<XF.f.! A f.f.f.f.h.`.'.=.@ + X N :XyXyXyX",
"yXyX2X<.+   X | oX}.}.f.[ ' ( H ) [ ' [ f.] C. Xc   X # !.].yXyX",
"yXyX:Xw     q .X}.n.' , 6 / F _ x.) ) [ ' ^ %.#X].% X X N ~.yXyX",
"yX4XJ.@   + 0.0X&.f.' z 0 o G V B _ { K ~ n.s.b.2X} X X 1 W.^.yX",
"yXwXb     q oXm.f.[ ! U g . & o > > K { c.A ~ h.m.].< X X ;.>XyX",
"yX1Xw   X l eX&.f.[ '  .P > : . & C * J x.J / f.&.wXh X   n >XyX",
"yX>Xw   X ..eX^ [ [ ' G s M.O.* * y Z Z #.S.^ f.^ wX=.X X j /.yX",
"yX/.j   X r.0X^ [ f.' = 2 ].5X-.P 9.7X@X~ @.[ [ ^ 0X6.X X j !.yX",
"yX~.j     r.0X] [ f.' W s ].7X*X8.5XqXqX;Xj.[ [ ) rX6.X X d !.yX",
"yX>Xq   X -.wX] f.[ a.C C v.7.S @ (.5XqX=Xz.[ [ ] eX| X X q /.yX",
"yX1X8   X l eXg.f.[ ~ L L Y U 9.&X6X7X7X%Xk.f.f.g.tXi     8 1XyX",
"yX1Xb X X % 3XV.[ [ j.T I ..4.`.8X7X7X$XG.j.[ [ F.<X#   X M ~.yX",
"yXXXU.+ X X ..3Xd.[ j.D D F b.@X-X-X=XG.#X] f.h.4X} X X @ W.*.yX",
"yXyX:Xd X   %  XC.k.z.Y A b.@X-X-X=X$X;X|.[ f.V. X# X X d ,XyXyX",
"yXyX].J.#     r *XV.z.s.+.J Z.-X8X=X;X=X`.f.m.2X7 X + - L.,.yXyX",
"yXyXyX.XN       x ..w.s.M.#XZ.N.Z.|.8X7XZ.m.+Xa X X + N .XyXyXyX",
"yXyXyX3.Q.v X X  .7 e.B.C.#X-X5X6XqX+Xu.t.D.u r X X n Q.z yXyXyX",
"yXyXyXyXt.E.j l o.+ p.0.C.}.i.p.B.t.D.#.w.5 u s + b E.-.yXyXyXyX",
"yXyXyXyXyX9.E.N U 0.u p.+ } #.w.s } w.X.7 #.p 5 m I.2.yXyXyXyXyX",
"yXyXyXyXyXyX2.R.J.9 X  .< X.s u e  .u u q X q *.Y.U yXyXyXyXyXyX",
"yXyXyXyXyXyXyXP 9.I.N f p - + s p 7 @ u k R P.8.t yXyXyXyXyXyXyX",
"yXyXyXyXyXyXyXyXyXI 4.>.;.M v f f v m *.>.4.a yXyXyXyXyXyXyXyXyX",
"yXyXyXyXyXyXyXyXyXyXyXy P X...2.2...X.s 5 yXyXyXyXyXyXyXyXyXyXyX",
"yXyXyXyXyXyXyXyXyXyXyXyXyXyXyXyXyXyXyXyXyXyXyXyXyXyXyXyXyXyXyXyX"
};
