/* XPM */
static char *result[] = {
/* columns rows colors chars-per-pixel */
"16 16 181 2 ",
"   c #30290E",
".  c #312A0F",
"X  c #342D12",
"o  c #352E13",
"O  c #3B3316",
"+  c #3E3618",
"@  c #3E381D",
"#  c #3F3920",
"$  c #47350A",
"%  c #423A1C",
"&  c #453E20",
"*  c #463E20",
"=  c #453F28",
"-  c #66451E",
";  c #474021",
":  c #474124",
">  c #464025",
",  c #474126",
"<  c #464027",
"1  c #484226",
"2  c #4E4524",
"3  c #4C4426",
"4  c #4C4527",
"5  c #4D4627",
"6  c #44402A",
"7  c #46422B",
"8  c #47442E",
"9  c #49432C",
"0  c #4A452C",
"q  c #4F492B",
"w  c #504829",
"e  c #564D29",
"r  c #5A502B",
"t  c #55523D",
"y  c #5E5638",
"u  c #5F5638",
"i  c #604E2B",
"p  c #685326",
"a  c #625831",
"s  c #675D35",
"d  c #655D37",
"f  c #665E37",
"g  c #645B39",
"h  c #655D3A",
"j  c #645C3B",
"k  c #685D3C",
"l  c #69603B",
"z  c #6E633A",
"x  c #69613D",
"c  c #6E633F",
"v  c #72683A",
"b  c #6D6640",
"n  c #6E6741",
"m  c #6B6347",
"M  c #6D654B",
"N  c #7E6741",
"B  c #716842",
"V  c #776E46",
"C  c #7C6A42",
"Z  c #7D6D4B",
"A  c #7F6F4C",
"S  c #7D7346",
"D  c #7F7546",
"F  c #7B7152",
"G  c #7C785D",
"H  c #7E7A60",
"J  c #9F7429",
"K  c #957C29",
"L  c #A1732A",
"P  c #847046",
"I  c #897B5C",
"U  c #9C7850",
"Y  c #837F65",
"T  c #887D60",
"R  c #897F61",
"E  c #AB812A",
"W  c #A08132",
"Q  c #AA873A",
"!  c #C88A32",
"~  c #CF9937",
"^  c #C8A73E",
"/  c #CDA63D",
"(  c #CCAA3D",
")  c #CDAA3F",
"_  c #CDAB3F",
"`  c #8B804F",
"'  c #87815E",
"]  c #8C805F",
"[  c #928652",
"{  c #988657",
"}  c #A48040",
"|  c #A98F45",
" . c #B08144",
".. c #B78F4C",
"X. c #A28A5A",
"o. c #BF9B53",
"O. c #958665",
"+. c #90876A",
"@. c #948A6B",
"#. c #968B6D",
"$. c #9F9469",
"%. c #9F966B",
"&. c #898670",
"*. c #999073",
"=. c #9B9379",
"-. c #9D9378",
";. c #9D957A",
":. c #9E977A",
">. c #9E967C",
",. c #A28562",
"<. c #A49862",
"1. c #A3916A",
"2. c #A4926B",
"3. c #A19669",
"4. c #A29669",
"5. c #A4956A",
"6. c #A59A6C",
"7. c #B09967",
"8. c #B29A68",
"9. c #B19C69",
"0. c #AC9B74",
"q. c #AC9C75",
"w. c #B1A16D",
"e. c #B9AB6E",
"r. c #B0A577",
"t. c #BDB07A",
"y. c #C38F40",
"u. c #C19B40",
"i. c #C59F43",
"p. c #CDAB41",
"a. c #D1B14D",
"s. c #CAAD52",
"d. c #CCAF52",
"f. c #CAAE57",
"g. c #C3A05E",
"h. c #CCB25D",
"j. c #C5A260",
"k. c #C6A361",
"l. c #C8A560",
"z. c #C6AD67",
"x. c #C4AF6F",
"c. c #CFB568",
"v. c #D5B560",
"b. c #C2AA7E",
"n. c #C4B57E",
"m. c #CCBC7D",
"M. c #D3BB73",
"N. c #DCBD7E",
"B. c #E1B966",
"V. c #E1BD73",
"C. c #D5C175",
"Z. c #D8C375",
"A. c #D6C07C",
"S. c #D9C578",
"D. c #979984",
"F. c #9D9E89",
"G. c #AFAD8E",
"H. c #B2AB8A",
"J. c #BAB395",
"K. c #B8B698",
"L. c #BCBCA1",
"P. c #C0B381",
"I. c #C5B886",
"U. c #CAB984",
"Y. c #D1BF81",
"T. c #C1B996",
"R. c #BFC0A5",
"E. c #D3C483",
"W. c #D6C28D",
"Q. c #D6C58F",
"!. c #DBCB8A",
"~. c #DBCC8A",
"^. c #E4C587",
"/. c #E6CA8B",
"(. c #F4D089",
"). c #F3D597",
"_. c #F0D79A",
"`. c #EED6A0",
"'. c #F4DBA2",
"]. c #F4E0AF",
"[. c None",
/* pixels */
"[.[.[.[.[.[.8.2.1.7.[.[.[.[.[.[.",
"[.[.[.[.0.F y r e j R q.[.[.[.[.",
"[.[.[.@.w d n V B b f 5 +.[.[.[.",
"[.[.*.X 4 4.U.z.M.x.$.: o >.[.[.",
"[.T.@ 3 I.A.a.E / ) s.P.& < J.[.",
"[.G . r.h.W p J ! ~ i.l.%.  &.[.",
"[.7 2 E.p.| i $ - L y.u.m.; t K.",
"R.1 l C._ K { X.N j.o.^ C.h 0 F.",
"L., x Z._ Q ,.b.5.].V._ S.g > D.",
"[.6 * !.(  .U 9.`.'.B._ ~.% 8 G.",
"[.H   6.f...} ^.).(.v.d.3.  Y [.",
"[.H.= + w.k.g.N./._.c.t.O 9 :.[.",
"[.[.;.q v e.Y.W.Q.n.<.z # =.[.[.",
"[.[.[.-.' S s [ D ` a c #.[.[.[.",
"[.[.[.[.O.T M u k m ] I [.[.[.[.",
"[.[.[.[.[.[.P A Z C [.[.[.[.[.[."
};
