/* XPM */
static char *result[] = {
/* columns rows colors chars-per-pixel */
"64 64 245 2 ",
"   c #070604",
".  c #1B1913",
"X  c #16130B",
"o  c #241E0F",
"O  c #2A2201",
"+  c #2C250D",
"@  c #2F280E",
"#  c #282209",
"$  c #30290E",
"%  c #372B09",
"&  c #2B2613",
"*  c #332C12",
"=  c #382F1E",
"-  c #3A3216",
";  c #3C351A",
":  c #383117",
">  c #3C3828",
",  c #4B370C",
"<  c #433B1C",
"1  c #443A17",
"2  c #583B13",
"3  c #443C22",
"4  c #4A3C29",
"5  c #53392B",
"6  c #4D421C",
"7  c #594514",
"8  c #54430F",
"9  c #725419",
"0  c #4C4423",
"q  c #4C452B",
"w  c #494428",
"e  c #544C2C",
"r  c #564A26",
"t  c #5B512D",
"y  c #554D35",
"u  c #5B5339",
"i  c #4D4834",
"p  c #66562C",
"a  c #77582B",
"s  c #635B3C",
"d  c #675A33",
"f  c #71512E",
"g  c #6B623B",
"h  c #6F6538",
"j  c #74663A",
"k  c #786629",
"l  c #7B621B",
"z  c #5A5848",
"x  c #515755",
"c  c #645D43",
"v  c #6D664A",
"b  c #6B6445",
"n  c #766B46",
"m  c #7D734B",
"M  c #7C7244",
"N  c #686757",
"B  c #736D55",
"V  c #787357",
"C  c #5B6363",
"Z  c #666A68",
"A  c #7A7669",
"S  c #6E7471",
"D  c #797B79",
"F  c #707064",
"G  c #5D6058",
"H  c #875B17",
"J  c #8A580E",
"K  c #956518",
"L  c #89572D",
"P  c #885839",
"I  c #8A6627",
"U  c #956C27",
"Y  c #9D7727",
"T  c #876837",
"R  c #89723C",
"E  c #987637",
"W  c #926F35",
"Q  c #A27C38",
"!  c #B07927",
"~  c #AD6C27",
"^  c #C17C18",
"/  c #915C41",
"(  c #856A44",
")  c #8B7B4B",
"_  c #857749",
"`  c #957D46",
"'  c #877C56",
"]  c #9B7756",
"[  c #B56B4B",
"{  c #857C69",
"}  c #856E69",
"|  c #865B60",
" . c #C47552",
".. c #7D8070",
"X. c #9C8137",
"o. c #A88929",
"O. c #A88936",
"+. c #B68837",
"@. c #B79839",
"#. c #B28F31",
"$. c #C19935",
"%. c #C98F2F",
"&. c #E3972F",
"*. c #C9A32E",
"=. c #C7A12A",
"-. c #CAA634",
";. c #CDAA3E",
":. c #C6A43A",
">. c #D0AC3E",
",. c #F2A439",
"<. c #EAA13E",
"1. c #97834D",
"2. c #8C8258",
"3. c #978957",
"4. c #9C915C",
"5. c #8D804E",
"6. c #A88B48",
"7. c #B48D4A",
"8. c #AB9245",
"9. c #B89849",
"0. c #A48C54",
"q. c #A89359",
"w. c #B6995D",
"e. c #B89857",
"r. c #BBA24A",
"t. c #B8A45C",
"y. c #8B8568",
"u. c #988C67",
"i. c #9C9362",
"p. c #9B936B",
"a. c #999468",
"s. c #888678",
"d. c #948E77",
"f. c #9A9478",
"g. c #A79868",
"h. c #BB9E62",
"j. c #B39B64",
"k. c #A59B78",
"l. c #B59572",
"z. c #AAA26A",
"x. c #BCA364",
"c. c #B9A569",
"v. c #AEA476",
"b. c #B3A374",
"n. c #BAAA77",
"m. c #BCB275",
"M. c #C89746",
"N. c #C69C59",
"B. c #D69944",
"V. c #CDAC42",
"C. c #C7A748",
"Z. c #D2AB48",
"A. c #D2B14A",
"S. c #C7A757",
"D. c #D1B353",
"F. c #D3AD5A",
"G. c #F1B556",
"H. c #ECAA4C",
"J. c #C1A66A",
"K. c #C2A768",
"L. c #D5AB65",
"P. c #CCB365",
"I. c #C5AD75",
"U. c #C5B475",
"Y. c #CBB57D",
"T. c #C7B57A",
"R. c #D7BA79",
"E. c #D6B76C",
"W. c #E6BC77",
"Q. c #E7B66A",
"!. c #D29E55",
"~. c #D2C27B",
"^. c #F3C26C",
"/. c #E8C37C",
"(. c #F3C779",
"). c #878986",
"_. c #98968A",
"`. c #9A9A95",
"'. c #8F8F83",
"]. c #A49E89",
"[. c #AAA48D",
"{. c #B7AB88",
"}. c #A3A39C",
"|. c #A9A898",
" X c #BBB395",
".X c #B7AF90",
"XX c #A6A6A2",
"oX c #B7B6A4",
"OX c #B0AEA2",
"+X c #CDBA83",
"@X c #C9B987",
"#X c #D1BD84",
"$X c #D4BF89",
"%X c #C9BC99",
"&X c #EDB49C",
"*X c #CDC287",
"=X c #D3C28C",
"-X c #D7C787",
";X c #DDD38A",
":X c #CCC397",
">X c #DACB94",
",X c #D8CA98",
"<X c #DED19C",
"1X c #DED393",
"2X c #E7C987",
"3X c #F3CD85",
"4X c #F0CE8B",
"5X c #E6D78C",
"6X c #F3D28B",
"7X c #E2D39C",
"8X c #E9D796",
"9X c #F3D494",
"0X c #F2D59A",
"qX c #F3D99C",
"wX c #EDCF94",
"eX c #F5EC9D",
"rX c #ECE497",
"tX c #CAC7A9",
"yX c #D6CDA5",
"uX c #DCD4A6",
"iX c #DCD7B2",
"pX c #CFCFB4",
"aX c #E2D5A2",
"sX c #E5DBAA",
"dX c #EBDCAC",
"fX c #E5D9A6",
"gX c #F3DAA4",
"hX c #F3DEAB",
"jX c #F1D7A0",
"kX c #ECDEB2",
"lX c #EAE1AE",
"zX c #ECE0A2",
"xX c #F5E1AE",
"cX c #EDE4B3",
"vX c #EAE6BC",
"bX c #F4E2B3",
"nX c #F3ECBC",
"mX c #F1E6B8",
"MX c #F8F0A0",
"NX c #F6F1C3",
"BX c #F9F4C5",
"VX c #FDFACC",
"CX c #FBF7C8",
"ZX c #F2EDCB",
"AX c None",
/* pixels */
"AXAXAXAXAXAXAXAXAXAXAXAXAXAXAXAXAXAXAXAXAXAXAXAXAXAXAXAXAXAXAXAXAXAXAXAXAXAXAXAXAXAXAXAXAXAXAXAXAXAXAXAXAXAXAXAXAXAXAXAXAXAXAXAX",
"AXAXAXAXAXAXAXAXAXAXAXAXAXAXAXAXAXAXAXAXAXAXAXAXAXAXAXAXAXq.e.q.q.e.q.AXAXAXAXAXAXAXAXAXAXAXAXAXAXAXAXAXAXAXAXAXAXAXAXAXAXAXAXAX",
"AXAXAXAXAXAXAXAXAXAXAXAXAXAXAXAXAXAXAXAXAXAXAXAXw.e.w.w.h.h.K.K.h.J.h.h.h.w.e.q.AXAXAXAXAXAXAXAXAXAXAXAXAXAXAXAXAXAXAXAXAXAXAXAX",
"AXAXAXAXAXAXAXAXAXAXAXAXAXAXAXAXAXAXAXAXAXw.h.h.J.n.k.f.'.s.D D D { ).'.f.k.b.J.h.w.w.AXAXAXAXAXAXAXAXAXAXAXAXAXAXAXAXAXAXAXAXAX",
"AXAXAXAXAXAXAXAXAXAXAXAXAXAXAXAXAXAXj.j.x.m.v.f.).{ B B b u t e t t g n V V s.)._.v.I.h.w.AXAXAXAXAXAXAXAXAXAXAXAXAXAXAXAXAXAXAX",
"AXAXAXAXAXAXAXAXAXAXAXAXAXAXAXAXAXh.J.I.[.`...B y 3 < $ @ * 1 1 @ @ : @ * 5 t ) .X|.`.|.I.c.x.AXAXAXAXAXAXAXAXAXAXAXAXAXAXAXAXAX",
"AXAXAXAXAXAXAXAXAXAXAXAXAXAXAXx.J.I..X`.{ s 6 * $ * 0 h h : h - ; h t r - d d @ * v v.[.`.OXT.c.j.AXAXAXAXAXAXAXAXAXAXAXAXAXAXAX",
"AXAXAXAXAXAXAXAXAXAXAXAXAXAXJ.I. XXX{ t < $ < 3.0.3 0.; M r t.t j r j g 1.; h p d 3 @ 6 j d.}. XI.J.AXAXAXAXAXAXAXAXAXAXAXAXAXAX",
"AXAXAXAXAXAXAXAXAXAXAXAXc.I.+XOX_.g ; $ t * 4.3 w i.z.n z.w -X4.w m.z.s m.; 2.g m.@ ; a.: ; s _.|.@XI.0.AXAXAXAXAXAXAXAXAXAXAXAX",
"AXAXAXAXAXAXAXAXAXAXAXI.Y.@XXX{ e * w v...m.n 4...m $ g w # # X # # + # ; i.2.w 3.# i.g m.$ @ ; { XX%XI.g.AXAXAXAXAXAXAXAXAXAXAX",
"AXAXAXAXAXAXAXAXAXAXI.Y.%X}.B < $ $ + q.% 5.* 0 7 # q b 2.4.i.4.i.4.i.4.v w & ; M t 3.# 4.$ $ $ * v }.%XY.g.AXAXAXAXAXAXAXAXAXAX",
"AXAXAXAXAXAXAXAXAXY.+X%X}.c - @ $ $ + 0 k h + w m i.m m n n ' ] 2.' n b M 2.p.' > @ d j 0 @ $ $ @ * c XX%X#Xg.AXAXAXAXAXAXAXAXAX",
"AXAXAXAXAXAXAXAX@X+X%X}.s - $ $ $ $ $ + & w u.2.m 2.n.T.+X#X+X#X+X+X#XY.+Xn.' n y.a.; # + @ $ $ $ $ $ V XX%X+X' AXAXAXAXAXAXAXAX",
"AXAXAXAXAXAXAXAX#X,XXXb - $ $ $ $ $ $ ; y.a.m b.*X*X=X*X-X-X-X7X2X-X-X*X#X$X#X+Xv.n u...$ @ @ @ $ $ $ $ s.XXyX$XAXAXAXAXAXAXAXAX",
"AXAXAXAXAXAXAX$X,XXXV 1 $ $ $ $ @ @ y v.' z.$X$X$X-X~.R.P.r.I >XZXP.S.P.E.~.-X$X*X*Xv.B k.3 * @ $ @ $ $ * [.XX<X@XAXAXAXAXAXAXAX",
"AXAXAXAXAXAX$X7XOXs.3 $ $ $ $ $ @ N n.' $X>X>X-XR.yXZX7X;.=.I +.A.D.V.V.V.C.S.P.;X-X>X=X2.k.u @ $ $ $ $ @ 4 OXOX<Xg.AXAXAXAXAXAX",
"AXAXAXAXAXAX<XyX_.e $ $ $ $ $ $ V v.p.>X>X>XU.iXZX1XD.V.-.#.I Q >.;.;.V.V.V.V.V.9.P.>X>X>Xk.p.z $ @ $ $ $ @ V |.tX,XAXAXAXAXAXAX",
"AXAXAXAXAX,XfX}.v * $ $ $ $ @ b v.v.<X<X-XT.ZX2XV.;.V.;.=.o.I ~ C.;.;.;.V.V.V.V.A.:.9.-X<X<Xv.p.y @ $ $ $ $ @ |.`.sX{.AXAXAXAXAX",
"AXAXAXAXAXaXtXs.6 $ $ $ $ $ q v.z.uX<X~.@XsXZ.:.;.;.;.-.=.Y I ^ $.Z.-.;.;.;.V.;.;.V.;.8.~.7XaXv.u.; $ @ $ $ @ u oXoXsXV AXAXAXAX",
"AXAXAXAXuXkX`.c $ $ $ $ $ : z.a.uXsX*XU.7X;.A.C.A.*.;.-.=.U I %.&.M.A.*.-.;.;.V.;.;.V.-.O.*XuXfXp.m $ $ $ @ @ $ [.`.iX XAXAXAXAX",
"AXAXAXAXdX XA w $ $ $ $ $ B 4.fXdX;Xt.-XV.-.#.% 8 6.A.=.-.I ~ ,.H.&.Q 8.F.>.-.-.;.;.*.;.M.Q -XsXfX2.w $ $ $ $ $ z }.OXsXAXAXAXAX",
"AXAXAXuXmX).v $ $ $ $ $ 3 4.*XlX7X8.E.V.;.*.Y # O 5 a C.O.I ! %.,.H.H.<.! 6.Z.Z.*.*.D.X.7.M.H.<XcX:Xg # $ $ $ $ @ |...mXk.AXAXAX",
"AXAXAXlXiXS w @ $ $ $ @ ..q.cXlXt.C.A.;.;.=.l | 5 % 5 % 9 I K Y K K &.,.,.&.^ U C.9.E 2XW.M.R.x.kXlXp.6 $ @ $ $ @ y...pX,XAXAXAX",
"AXAXAXnX|.N < @ $ @ $ ; 4.1XvX-X8.V.V.;.-.=.a } } 5 O O r 7.I J J H ~ &.,.,.,.^ K %.W.L.E B.n.8.=XsX,Xg @ @ @ $ @ w }.`.mXAXAXAX",
"AXAXuXBX..b @ @ @ $ $ n z.nXcX8.V.V.;.;.-.o.R } } 4 O O $ , 8 , , 7 2 H &.,.,.^ %.W.M.H W G.q.V.8.uXzX4.6 $ $ $ @ @ OXS nXy.AXAX",
"AXAXlXZXC t @ * @ @ * 4.*XnX;XO.A.;.;.V.-.o.M { { 2 O O 7 8 O O 7 P f , , ! H.H.&.Q.L H %.! C.>.O.>XlX{...$ $ $ @ @ _.G vX{.AXAX",
"AXAXvXpXG w $ $ @ @ : g.vXnXt.r.V.;.;.V.;.@._ f.{ j O % H 1 O O O P P L 2 % I G.,.Z.9 Y !.Q >.V.@.c.cXuX4.% $ $ @ $ A Z tXyXAXAX",
"AXAXNXOXz 0 $ $ @ @ s q.nXBXO.V.V.V.>.;.V.:.@.4.] j W ! J , O O O % L L 2 7 a W G.G.L.+.Q Z.;.V.V.@.cXlXz.e $ $ $ $ u s.}.nXAXAX",
"AXAXCX_.V : $ $ @ @ h t.nXnXO.V.V.V.V.;.;.-.A.O.1.R M.B.%.2 O O O O % f , K %.d 6.^.(.G.X.V.;.V.V.O.lXnXv.N $ $ $ $ 3 f.).BX> AX",
"AXAXCX).2.+ $ $ $ $ ..{.CXrXo.V.V.;.>.;.;.*.k O - _ $XgX3X_ L T f f ( d M.%.~ H b c.3XS.@.;.;.V.V.O.lXnXm.m $ $ $ $ + _.S VXx AX",
"AXAXVXD f.$ $ $ $ $ ..*XCX-X@.V.V.;.V.V.;.=.8 O O ..4.mXkX>Xf ( ` / f b.hX9X(.F.K j T.8.;.;.;.V.V.o.rXNX{.M $ $ $ $ @ '.Z VXG AX",
"AXtXVXS ].$ $ $ $ $ R ;XCX*X@.;.;.;.;.;.;.o.9 # O e p.mXdXhXaXk.' _ @XxXxXxXxXgXG.Z.1.O.;.;.V.V.V.O.1XCX:Xm @ $ $ $ + '.C VXN AX",
"AXAXVXS ].$ $ $ $ $ j uXCX*X:.;.;.V.;.;.;.$.6.< < ' tXkXdXhXbXbXbX<XbXbXbXbXbXbX3X^.9.9.V.V.;.V.V.O.8XVX:Xj * $ $ $ $ d.C VXG AX",
"AXAXVX..f.$ $ @ $ $ M yXCX;X@.>.V.;.V.;.-.-.C.7.a ( l.dXdXbXuXb.n d $XbXbXbXbXbXgX3X^.M.V.;.;.V.V.#.8XCX:Xn $ $ $ $ + a.C VXz AX",
"AXAXCX..y.@ $ $ $ $ g ,XBX1X@.>.V.;.;.;.-.S.a L / t / l.&XP 0.( O O < dXhXbXbXbXzX6X^.r.V.;.;.;.;.@.sXBX*Xu $ $ $ $ - ..S VX> AX",
"AXAXBX`.n * $ $ $ $ u *XCXlX@.>.V.;.;.-.-.[ P P f / &X&Xl.h.] 1 , r $XhXjXbXhXhXgX3X/.9.;.;.V.V.;.@.nXBXT.q $ @ $ $ 6 z ).BX. AX",
"AXAXNXoXz < + $ $ $ ; *XBXnXr.>.;.V.;.;.o. ./ L L [ &X] n p j ) n.wXhXgXhXhXhXhX9X3X^.O.;.;.;.V.;.r.BXnXm.& $ $ @ @ 6 x oXiXAXAX",
"AXAXiXiXx < @ $ $ $ @ i.nXnXc.>.V.;.;.;.o.N. .[ [ ] P ( u.l.$XbXhXhXgXgXhXhXhXqX6X(.^.@.V.;.;.;.;.m.BXvX5.* $ $ @ + < x ZX XAXAX",
"AXAXtXCXZ i $ $ $ @ $ h uXnX>XC.;.;.;.-.V.N.e./ t _ k.k.j.q.R.9X0XjXgXhXhXgXgX6X(.^.^.@.;.V.;.;.:.<XnX1Xu @ @ @ $ $ y D CXy.AXAX",
"AXAX{.nX'.u * $ $ @ @ > T.cXcXt.;.;.;.-.@.W.Q I 0.q.E I ( R.I.3X0XjXgXgXhXgX9X(.^.(.S.:.;.;.;.;.r.nXnXm.: + @ @ $ $ z }.nXz AXAX",
"AXAXAXmXoXZ % $ $ $ $ @ ) uXcX+XC.;.-.*.r.e.` I W I W 1.0.w.$X6X0XjXjXqXeX9X3X(.(.(.#.V.;.V.;.C.+XnX<Xj $ $ $ $ $ - F pXsX  AXAX",
"AXAXAX:XvXS w $ $ $ $ $ w K.lXfXt.V.=.A.S.L.W U E E W E E.4X4XwX4X9X9X9X6X6X(.(.6XR.:.V.V.;.V.t.cXcXc.: $ $ $ $ + e S nXk.AXAXAX",
"AXAXAXv.cX_.N $ $ $ $ $ + j 1XdX*Xt.D.e.W.7.Q I K 9.N.e.R.wX4XjXqX9X9X9X6X3X(.3X9XI.C.;.V.;.S.*XcX*Xd @ $ $ @ $ * F |.lXz AXAXAX",
"AXAXAXAXuXyXD w $ $ $ $ @ * z.fXsXm.r./.W.Q.N.6.I L L./.9X9X9XjX9X0XqX9X9X9X6X6XjXI.;.;.;.D.c.lXfX4.@ $ $ $ @ * u ..iX:X  AXAXAX",
"AXAXAXAXv.dX'.A % @ @ $ $ $ < #XuX<Xm.Q.Q.!.e.!.Q U H 7./.0XjXhXjXjXqX9X9X6X(.8XxXx.V.;.A.x.<XsXU.- $ $ $ $ $ * s.`.dXB AXAXAXAX",
"AXAXAXAXAX,XtX).z @ @ $ $ $ $ p 7X<X>XU.L.L.N.e.L.N.$.T 7.P.wXhXgXqX9X6X/.-X8XxXzXe.;.V.t.uXlX>X< $ $ $ $ @ $ B ..uX@X. AXAXAXAX",
"AXAXAXAXAXk.7X`._.= $ $ $ $ @ + h <X3.v.n.S.Q.7.K.9X$XR.+.R.7.K.J.L.Q 2X/.xXxXxXgX@.D.t.lXcX>Xe @ $ $ $ @ @ q _.|.aXv AXAXAXAXAX",
"AXAXAXAXAXAX*X<X).d.$ $ $ $ @ @ + j ` ` j.@XI.6.L.N.9XkX0XR.2XwX9X4XhXwXgXxXxXxX9Xt.z.>X1XT.t + $ $ $ $ * * _.).uXn.X AXAXAXAXAX",
"AXAXAXAXAXAXB =X%X).B $ $ $ $ $ 6 t.5.5.t.z.{.m.~./.2X0XgXdXhXhXbXjXhXhXxXbXlXm.4.a.8XMX~.@ r $ $ $ $ $ $ s.).:X=X> AXAXAXAXAXAX",
"AXAXAXAXAXAXAXi.>X}.`.c $ $ $ * t.m.$ * X.~.m.*X@Xn.Y.-XqX0XqXgXqXqXxXhX,Xn.3.z.m.-X1Xh # 3.U.t $ $ $ $ } _. X=Xv AXAXAXAXAXAXAX",
"AXAXAXAXAXAXAXAXb.>X_.}.z & $ i.5Xw $ $ s rXX.m.*X~.T.v.g.v.n.v.v.v.g.4.a.m.~.;Xg.MXm @ 2.4.) j @ $ $ B `.`.>Xu.  AXAXAXAXAXAXAX",
"AXAXAXAXAXAXAXAXAXI.$X`.}.c * ;X5Xe + : *X-Xg MX~.g.5XrXm.T.m.~.;X-X+Xn.rX5X1.t t 5X_ @ q + j d @ * V `.).$Xb.. AXAXAXAXAXAXAXAX",
"AXAXAXAXAXAXAXAXAXy n.#X_.}.V = z.MXm.1XrXe *XT.& 6 6 rXm.0.rX;Xz.T.MXg.m.1X6 h 0 3.T.h ; r ` < * 2.d._.@Xl.& AXAXAXAXAXAXAXAXAX",
"AXAXAXAXAXAXAXAXAXAXy I.#X`.}._.* t 2.2.; @ 5XM $ * @ z.z.5.-X; % @ 0 - g ;X-Xm.t $ 3.x.0.` 7 4 i.'.`.@Xb.& AXAXAXAXAXAXAXAXAXAX",
"AXAXAXAXAXAXAXAXAXAXAX4 g.+X]._.OXz @ @ * @ I._ $ @ : U._ 3.j.+ g q.z.5.: T.5.# @ * @ ; < $ v p.).[.+X0.. AXAXAXAXAXAXAXAXAXAXAX",
"AXAXAXAXAXAXAXAXAXAXAXAXAX0.I.{.`.|.f.i $ $ g J.M t 3.c.1 M t.* ; 0 _ 4.@ 5.q.d 3.j $ $ u i.d.`.{.I._ . AXAXAXAXAXAXAXAXAXAXAXAX",
"AXAXAXAXAXAXAXAXAXAXAXAXAXAX_ c.I.].)._.{ u + t 1.0.` < + 1 3.) r p 3.t % t 0._ t : c 3.d.).].I.J.u   AXAXAXAXAXAXAXAXAXAXAXAXAX",
"AXAXAXAXAXAXAXAXAXAXAXAXAXAXAX4 3.J.@X_.).{ d.B i + o @ @ @ - a R j 6 + @ $ * y _ p.y.)._.{.J.) & AXAXAXAXAXAXAXAXAXAXAXAXAXAXAX",
"AXAXAXAXAXAXAXAXAXAXAXAXAXAXAXAXAXt q.J.n.f.D S A f.{ _ b c z i i u s b _ 2.p.{ S D _.n.K.] <   AXAXAXAXAXAXAXAXAXAXAXAXAXAXAXAX",
"AXAXAXAXAXAXAXAXAXAXAXAXAXAXAXAXAXAXAXt ] N.J.b.d.A Z Z F B B ' V V V F Z S A d.l.J.N.) 3   AXAXAXAXAXAXAXAXAXAXAXAXAXAXAXAXAXAX",
"AXAXAXAXAXAXAXAXAXAXAXAXAXAXAXAXAXAXAXAXAX= h 1.w.h.c.l.g.u.u.{ { u.u.g.l.J.h.w.` d . AXAXAXAXAXAXAXAXAXAXAXAXAXAXAXAXAXAXAXAXAX",
"AXAXAXAXAXAXAXAXAXAXAXAXAXAXAXAXAXAXAXAXAXAXAXAX& 5 d ( ] 0.q.w.e.q.0.` j d 3 .   AXAXAXAXAXAXAXAXAXAXAXAXAXAXAXAXAXAXAXAXAXAXAX",
"AXAXAXAXAXAXAXAXAXAXAXAXAXAXAXAXAXAXAXAXAXAXAXAXAXAXAXAXAX  X X X     AXAXAXAXAXAXAXAXAXAXAXAXAXAXAXAXAXAXAXAXAXAXAXAXAXAXAXAXAX",
"AXAXAXAXAXAXAXAXAXAXAXAXAXAXAXAXAXAXAXAXAXAXAXAXAXAXAXAXAXAXAXAXAXAXAXAXAXAXAXAXAXAXAXAXAXAXAXAXAXAXAXAXAXAXAXAXAXAXAXAXAXAXAXAX"
};
